<svg width="366.16249999999997px" height="124.4224853515625px" xmlns="http://www.w3.org/2000/svg" viewBox="66.91875000000002 12.78875732421875 366.16249999999997 124.4224853515625" style="background: rgba(29, 14, 11, 0);" preserveAspectRatio="xMidYMid"><defs><filter id="editing-hover" x="-100%" y="-100%" width="300%" height="300%"><feFlood flood-color="rgba(49.132104222821184%,23.684815813117694%,56.19047619047619%,0.116)" result="flood"></feFlood><feComposite operator="in" in2="SourceAlpha" in="flood" result="shadow"></feComposite><feOffset dx="-0.5" dy="0.8" in="SourceGraphic" result="offset-1"></feOffset><feOffset dx="0.5" dy="-0.8" in="shadow" result="offset-2"></feOffset><feMerge><feMergeNode in="offset-2"></feMergeNode><feMergeNode in="offset-1"></feMergeNode></feMerge></filter></defs><g filter="url(#editing-hover)"><g transform="translate(121.5099983215332, 96.57999992370605)"><path d="M4.41 0L4.41-42.65L4.41-42.65Q4.85-42.65 6.30-42.68L6.30-42.68L6.30-42.68Q7.75-42.71 9.58-42.71L9.58-42.71L9.58-42.71Q11.40-42.71 13.36-42.75L13.36-42.75L13.36-42.75Q15.31-42.78 16.76-42.78L16.76-42.78L16.76-42.78Q27.47-42.78 32.63-37.45L32.63-37.45L32.63-37.45Q37.80-32.13 37.80-21.61L37.80-21.61L37.80-21.61Q37.80-11.09 32.51-5.48L32.51-5.48L32.51-5.48Q27.22 0.13 15.94 0.13L15.94 0.13L15.94 0.13Q13.99 0.13 12.13 0.09L12.13 0.09L12.13 0.09Q10.27 0.06 8.73 0.06L8.73 0.06L8.73 0.06Q7.18 0.06 6.05 0.03L6.05 0.03L6.05 0.03Q4.91 0 4.41 0L4.41 0ZM15.88-37.17L15.88-37.17Q14.43-37.17 13.45-37.14L13.45-37.14L13.45-37.14Q12.47-37.11 11.91-37.11L11.91-37.11L11.91-5.54L11.91-5.54Q12.60-5.48 13.70-5.48L13.70-5.48L13.70-5.48Q14.80-5.48 16.88-5.48L16.88-5.48L16.88-5.48Q23.50-5.48 26.59-9.36L26.59-9.36L26.59-9.36Q29.67-13.23 29.67-20.92L29.67-20.92L29.67-20.92Q29.67-24.57 28.95-27.56L28.95-27.56L28.95-27.56Q28.22-30.55 26.55-32.70L26.55-32.70L26.55-32.70Q24.89-34.84 22.27-36.00L22.27-36.00L22.27-36.00Q19.66-37.17 15.88-37.17L15.88-37.17ZM77.99 0L69.55-25.89L69.55-25.89Q68.61-28.48 68.04-30.93L68.04-30.93L68.04-30.93Q67.72-29.74 67.44-28.54L67.44-28.54L67.44-28.54Q67.16-27.34 66.72-25.89L66.72-25.89L58.53 0L52.98 0L41.14-42.65L48.64-42.65L54.18-21.29L54.18-21.29Q55.63-15.75 56.26-12.35L56.26-12.35L56.26-12.35Q56.70-14.11 57.30-16.25L57.30-16.25L57.30-16.25Q57.90-18.40 58.78-21.17L58.78-21.17L65.46-42.65L71.06-42.65L77.74-21.17L77.74-21.17Q78.62-18.33 79.25-16.00L79.25-16.00L79.25-16.00Q79.88-13.67 80.26-11.91L80.26-11.91L80.26-11.91Q80.51-13.67 80.99-16.00L80.99-16.00L80.99-16.00Q81.46-18.33 82.22-21.17L82.22-21.17L87.76-42.65L95.38-42.65L83.54 0L77.99 0ZM92.42 0L108.80-42.65L114.72-42.65L131.17 0L123.17 0L119.26-11.15L103.89-11.15L99.86 0L92.42 0ZM105.90-16.70L117.31-16.70L117.31-16.70Q115.29-22.36 113.84-27.00L113.84-27.00L113.84-27.00Q112.39-31.63 111.64-34.27L111.64-34.27L111.64-34.27Q110.75-31.44 109.31-26.84L109.31-26.84L109.31-26.84Q107.86-22.24 105.90-16.70L105.90-16.70ZM135.26 0L135.26-42.65L142.76-42.65L142.76 0L135.26 0ZM164.81-42.65L164.81-42.65Q163.80-37.93 162.57-34.62L162.57-34.62L162.57-34.62Q161.34-31.31 159.89-29.01L159.89-29.01L159.89-29.01Q158.44-26.71 156.71-25.11L156.71-25.11L156.71-25.11Q154.98-23.50 153.03-22.18L153.03-22.18L168.53 0L159.83 0L143.58-23.06L143.58-23.50L143.58-23.50Q149.37-25.64 152.55-30.52L152.55-30.52L152.55-30.52Q155.74-35.41 157.44-42.65L157.44-42.65L164.81-42.65ZM171.86-42.65L179.30-42.65L179.30-16.25L179.30-16.25Q179.30-10.39 181.75-7.91L181.75-7.91L181.75-7.91Q184.21-5.42 188.43-5.42L188.43-5.42L188.43-5.42Q192.72-5.42 194.76-8.28L194.76-8.28L194.76-8.28Q196.81-11.15 196.81-16.25L196.81-16.25L196.81-42.65L204.31-42.65L204.31-15.69L204.31-15.69Q204.31-12.41 203.46-9.51L203.46-9.51L203.46-9.51Q202.61-6.62 200.66-4.41L200.66-4.41L200.66-4.41Q198.70-2.21 195.49-0.91L195.49-0.91L195.49-0.91Q192.28 0.38 187.61 0.38L187.61 0.38L187.61 0.38Q183.14 0.38 180.15-0.91L180.15-0.91L180.15-0.91Q177.16-2.21 175.30-4.41L175.30-4.41L175.30-4.41Q173.44-6.62 172.65-9.51L172.65-9.51L172.65-9.51Q171.86-12.41 171.86-15.69L171.86-15.69L171.86-42.65ZM229.07-31.94L226.61-36.92L226.61-36.92Q227.87-37.48 229.48-38.12L229.48-38.12L229.48-38.12Q231.08-38.74 232.88-39.25L232.88-39.25L232.88-39.25Q234.68-39.75 236.56-40.10L236.56-40.10L236.56-40.10Q238.45-40.45 240.34-40.45L240.34-40.45L240.34-40.45Q242.55-40.45 244.57-39.91L244.57-39.91L244.57-39.91Q246.58-39.38 248.13-38.12L248.13-38.12L248.13-38.12Q249.67-36.85 250.58-34.74L250.58-34.74L250.58-34.74Q251.50-32.63 251.50-29.55L251.50-29.55L251.50-29.55Q251.50-25.45 248.79-21.39L248.79-21.39L248.79-21.39Q246.08-17.32 241.29-12.10L241.29-12.10L235.49-5.73L252.57-5.73L252.57 0L226.36 0L226.42-5.92L226.42-5.92Q226.93-6.49 228.15-7.78L228.15-7.78L228.15-7.78Q229.38-9.07 230.74-10.49L230.74-10.49L230.74-10.49Q232.09-11.91 233.32-13.17L233.32-13.17L233.32-13.17Q234.55-14.43 235.05-14.99L235.05-14.99L235.05-14.99Q237.51-17.83 239.18-19.88L239.18-19.88L239.18-19.88Q240.85-21.92 241.86-23.56L241.86-23.56L241.86-23.56Q242.87-25.20 243.27-26.62L243.27-26.62L243.27-26.62Q243.68-28.04 243.68-29.67L243.68-29.67L243.68-29.67Q243.68-32.07 242.33-33.52L242.33-33.52L242.33-33.52Q240.97-34.97 238.83-34.97L238.83-34.97L238.83-34.97Q236.38-34.97 234.20-34.08L234.20-34.08L234.20-34.08Q232.03-33.20 229.07-31.94L229.07-31.94Z" fill="#8414db"></path></g></g><style>text {
  font-size: 64px;
  font-family: Arial Black;
  dominant-baseline: central;
  text-anchor: middle;
}</style></svg>